<?xml version="1.0" encoding="UTF-8"?>
<svg width="26px" height="26px" viewBox="0 0 26 26" version="1.1" xmlns="http://www.w3.org/2000/svg" xmlns:xlink="http://www.w3.org/1999/xlink">
    <title>Icon - Enlarge</title>
    <desc>Icon - Enlarge</desc>
    <g stroke="none" stroke-width="1" fill="none" fill-rule="evenodd">
        <path d="M1.28571429,9 C0.577052868,9 0,8.42294713 0,7.71428571 L0,1.28571429 C0,0.577052868 0.577052868,0 1.28571429,0 L7.71428571,0 C8.42294713,0 9,0.577052868 9,1.28571429 C9,1.9943757 8.42294713,2.57142857 7.71428571,2.57142857 L2.57142857,2.57142857 L2.57142857,7.71428571 C2.57142857,8.42294713 1.9943757,9 1.28571429,9 Z" id="Path" fill="#EFEFEF" fill-rule="nonzero"></path>
        <path d="M24.7142857,9 C24.0056243,9 23.4285714,8.42294713 23.4285714,7.71428571 L23.4285714,2.57142857 L18.2857143,2.57142857 C17.5770529,2.57142857 17,1.9943757 17,1.28571429 C17,0.577052868 17.5770529,0 18.2857143,0 L24.7142857,0 C25.4229471,0 26,0.577052868 26,1.28571429 L26,7.71428571 C26,8.42294713 25.4229471,9 24.7142857,9 Z" id="Path" fill="#EFEFEF" fill-rule="nonzero"></path>
        <path d="M24.7142857,26 L18.2857143,26 C17.5770529,26 17,25.4229471 17,24.7142857 C17,24.0056243 17.5770529,23.4285714 18.2857143,23.4285714 L23.4285714,23.4285714 L23.4285714,18.2857143 C23.4285714,17.5770529 24.0056243,17 24.7142857,17 C25.4229471,17 26,17.5770529 26,18.2857143 L26,24.7142857 C26,25.4229471 25.4229471,26 24.7142857,26 Z" id="Path" fill="#EFEFEF" fill-rule="nonzero"></path>
        <path d="M7.71428571,26 L1.28571429,26 C0.577052868,26 0,25.4229471 0,24.7142857 L0,18.2857143 C0,17.5770529 0.577052868,17 1.28571429,17 C1.9943757,17 2.57142857,17.5770529 2.57142857,18.2857143 L2.57142857,23.4285714 L7.71428571,23.4285714 C8.42294713,23.4285714 9,24.0056243 9,24.7142857 C9,25.4229471 8.42294713,26 7.71428571,26 Z" id="Path" fill="#EFEFEF" fill-rule="nonzero"></path>
    </g>
</svg>