<?xml version="1.0" encoding="UTF-8"?>
<svg width="31px" height="26px" viewBox="0 0 31 26" version="1.1" xmlns="http://www.w3.org/2000/svg" xmlns:xlink="http://www.w3.org/1999/xlink">
    <title>Enlarge icon</title>
    <desc>Enlarge icon</desc>
    <g stroke="none" stroke-width="1" fill="none" fill-rule="evenodd">
        <path d="M10,16.19155 L10,9.80844998 L2,3.28993146 L2,8 C2,8.55228475 1.55228475,9 1,9 C0.44771525,9 0,8.55228475 0,8 L0,1 C0,0.44771525 0.44771525,-8.8817842e-15 1,-8.8817842e-15 L10,-8.8817842e-15 C10.5522847,-8.8817842e-15 11,0.44771525 11,1 C11,1.55228475 10.5522847,2 10,2 L3.58309771,2 L10.9467341,8 L20.0532659,8 L27.4169023,2 L21,2 C20.4477153,2 20,1.55228475 20,1 C20,0.44771525 20.4477153,-8.8817842e-15 21,-8.8817842e-15 L30,-8.8817842e-15 C30.5522847,-8.8817842e-15 31,0.44771525 31,1 L31,8 C31,8.55228475 30.5522847,9 30,9 C29.4477153,9 29,8.55228475 29,8 L29,3.28993146 L21,9.80844998 L21,16.19155 L29,22.7100685 L29,18 C29,17.4477153 29.4477153,17 30,17 C30.5522847,17 31,17.4477153 31,18 L31,25 C31,25.5522847 30.5522847,26 30,26 L21,26 C20.4477153,26 20,25.5522847 20,25 C20,24.4477153 20.4477153,24 21,24 L27.4169023,24 L20.0532659,18 L10.9467341,18 L3.58309771,24 L10,24 C10.5522847,24 11,24.4477153 11,25 C11,25.5522847 10.5522847,26 10,26 L1,26 C0.44771525,26 0,25.5522847 0,25 L0,18 C0,17.4477153 0.44771525,17 1,17 C1.55228475,17 2,17.4477153 2,18 L2,22.7100685 L10,16.19155 Z" fill="#FFFFFF" fill-rule="nonzero"></path>
    </g>
</svg>