<?xml version="1.0" encoding="UTF-8"?>
<svg width="90px" height="84px" viewBox="0 0 90 84" version="1.1" xmlns="http://www.w3.org/2000/svg" xmlns:xlink="http://www.w3.org/1999/xlink">
    <!-- Generator: Sketch 53.2 (72643) - https://sketchapp.com -->
    <title>like</title>
    <desc>Created with Sketch.</desc>
    <g id="Page-1" stroke="none" stroke-width="1" fill="none" fill-rule="evenodd">
        <g id="like">
            <g id="Group">
                <path d="M28.442,25.163 C21.323,25.824 19.816,27.331 19.155,34.45 C19.119,34.842 18.549,34.842 18.513,34.45 C17.852,27.331 16.345,25.824 9.226,25.163 C8.834,25.127 8.834,24.557 9.226,24.521 C16.345,23.86 17.852,22.353 18.513,15.234 C18.549,14.842 19.119,14.842 19.155,15.234 C19.816,22.353 21.323,23.86 28.442,24.521 C28.833,24.557 28.833,25.126 28.442,25.163 Z" id="Path" fill="#C7419A" fill-rule="nonzero"></path>
                <path d="M76.23,7.145 C71.807,7.556 70.871,8.492 70.46,12.915 C70.437,13.158 70.083,13.158 70.061,12.915 C69.65,8.492 68.714,7.556 64.291,7.145 C64.048,7.122 64.048,6.768 64.291,6.746 C68.714,6.335 69.65,5.399 70.061,0.976 C70.084,0.733 70.438,0.733 70.46,0.976 C70.871,5.399 71.807,6.335 76.23,6.746 C76.474,6.769 76.474,7.123 76.23,7.145 Z" id="Path" fill="#C7419A" fill-rule="nonzero"></path>
                <path d="M88.534,23.478 C84.89,23.816 84.118,24.588 83.78,28.232 C83.761,28.432 83.47,28.432 83.451,28.232 C83.113,24.588 82.341,23.816 78.697,23.478 C78.497,23.459 78.497,23.168 78.697,23.149 C82.341,22.811 83.113,22.039 83.451,18.395 C83.47,18.195 83.761,18.195 83.78,18.395 C84.118,22.039 84.89,22.811 88.534,23.149 C88.735,23.168 88.735,23.46 88.534,23.478 Z" id="Path" fill="#C7419A" fill-rule="nonzero"></path>
                <path d="M40.761,9.524 C36.067,9.96 35.074,10.953 34.638,15.647 C34.614,15.905 34.238,15.905 34.214,15.647 C33.778,10.953 32.785,9.96 28.091,9.524 C27.833,9.5 27.833,9.124 28.091,9.1 C32.785,8.664 33.778,7.671 34.214,2.977 C34.238,2.719 34.614,2.719 34.638,2.977 C35.074,7.671 36.067,8.664 40.761,9.1 C41.019,9.125 41.019,9.5 40.761,9.524 Z" id="Path" fill="#C7419A" fill-rule="nonzero"></path>
                <path d="M90,38.688 C90,33.893 86.099,29.991 81.31,29.991 L61.344,29.711 L63.185,14.984 C63.185,10.009 59.919,2.784 54.801,2.784 L49.353,2.784 L46.565,17.614 L33.977,37.111 C32.641,38.982 31.692,40.543 31.004,41.944 C29.825,40.646 28.131,39.826 26.244,39.826 L6.439,39.826 C2.889,39.826 0,42.714 0,46.265 L0,76.778 C0,80.328 2.889,83.216 6.439,83.216 L26.244,83.216 C28.853,83.216 31.1,81.653 32.11,79.417 C34.032,81.465 36.755,82.753 39.779,82.753 L72.537,82.753 C77.332,82.753 81.233,78.852 81.233,74.057 C81.233,72.973 81.038,71.926 80.652,70.937 C84.353,69.886 86.977,66.465 86.977,62.569 C86.977,61.208 86.652,59.861 86.033,58.646 C88.492,57.043 90,54.299 90,51.364 C90,48.938 89.003,46.662 87.245,45.026 C89.003,43.39 90,41.114 90,38.688 Z M83.744,46.459 C85.627,47.404 86.796,49.284 86.796,51.365 C86.796,53.657 85.337,55.728 83.165,56.52 L81.019,57.305 L82.487,59.056 C83.316,60.044 83.773,61.292 83.773,62.57 C83.773,65.598 81.309,68.062 78.281,68.062 L74.773,68.062 L76.835,70.659 C77.616,71.645 78.029,72.821 78.029,74.058 C78.029,77.085 75.565,79.549 72.537,79.549 L39.779,79.549 C36.357,79.549 33.484,77.187 32.683,74.01 L32.683,46.97 C33.056,44.693 34.037,42.539 36.627,38.911 L49.542,18.911 L52.011,5.989 L54.801,5.989 C57.914,5.989 59.98,11.403 59.984,14.926 L58.01,32.9 L81.303,33.196 C84.331,33.196 86.795,35.66 86.795,38.688 C86.795,40.769 85.626,42.649 83.743,43.594 L80.893,45.026 L83.744,46.459 Z" id="Shape" fill="#C7419A" fill-rule="nonzero"></path>
                <path d="M83.744,46.459 C85.627,47.404 86.796,49.284 86.796,51.365 C86.796,53.657 85.337,55.728 83.165,56.52 L81.019,57.305 L82.487,59.056 C83.316,60.044 83.773,61.292 83.773,62.57 C83.773,65.598 81.309,68.062 78.281,68.062 L74.773,68.062 L76.835,70.659 C77.616,71.645 78.029,72.821 78.029,74.058 C78.029,77.085 75.565,79.549 72.537,79.549 L39.779,79.549 C36.357,79.549 33.484,77.187 32.683,74.01 L32.683,46.97 C33.056,44.693 34.037,42.539 36.627,38.911 L49.542,18.911 L52.011,5.989 L54.801,5.989 C57.914,5.989 59.98,11.403 59.984,14.926 L58.01,32.9 L81.303,33.196 C84.331,33.196 86.795,35.66 86.795,38.688 C86.795,40.769 85.626,42.649 83.743,43.594 L80.893,45.026 L83.744,46.459 Z" id="Path" fill="#FFFFFF"></path>
            </g>
        </g>
    </g>
</svg>