<?xml version="1.0" encoding="UTF-8"?>
<svg width="276px" height="85px" viewBox="0 0 276 85" version="1.1" xmlns="http://www.w3.org/2000/svg" xmlns:xlink="http://www.w3.org/1999/xlink">
    <title>L.Pronk Signature</title>
    <desc>L.Pronk Signature</desc>
    <g stroke="none" stroke-width="1" fill="none" fill-rule="evenodd">
        <g transform="translate(-53.000000, -42.000000)">
            <g transform="translate(53.000000, 42.000000)">
                <path d="M97.8876913,38.2535225 C97.8823117,38.266978 97.8688625,38.3073445 97.8581032,38.3315644 C97.7881678,38.4795751 97.6886443,38.6921722 97.661746,38.7459943 C97.4600092,39.1281309 97.2421334,39.5048853 97.0081187,39.8708753 C96.9166646,40.0108126 96.8171411,40.1507499 96.7203074,40.2933784 C96.1124071,40.9876829 95.4856779,41.6362387 94.8078421,42.2632657 C94.7997727,42.2740301 94.7594253,42.3090144 94.7244576,42.3386165 C94.5899663,42.4435696 94.38016,42.6077268 94.3156042,42.6534756 C93.9470983,42.9064392 93.5732126,43.1459474 93.1912575,43.3746911 C92.8093025,43.6007438 92.4219677,43.8106498 92.0211838,44.0097914 C91.8786231,44.0824512 91.7306828,44.1497287 91.5854323,44.2196974 C91.496668,44.2546818 91.3621768,44.3111949 91.2411347,44.3569437 C90.0791305,44.7713735 88.9009873,45.123908 87.6959459,45.3903271 C87.0907353,45.5248823 86.4855248,45.6405997 85.8749346,45.7428616 C85.6812672,45.7751549 85.4875999,45.8074481 85.2912427,45.8343591 C85.2024785,45.8451235 85.0760567,45.8612701 84.933496,45.8747257 C83.4702314,46.0200452 82.0069668,46.1115427 80.5410124,46.1761292 C80.8826201,39.7121002 81.2242279,33.2480712 81.5658356,26.77866 C82.2302223,26.7813511 82.8946089,26.7678956 83.5616854,26.7921155 C84.5838188,26.8270999 85.5978827,26.910524 86.6146364,27.0020215 C86.6791922,27.0208593 87.4323431,27.1096657 87.6098715,27.1419589 C88.2392904,27.2576763 88.8660196,27.3922315 89.4846792,27.5483154 C90.0145747,27.6828706 90.5444701,27.8362634 91.0662961,28.008494 C91.3298989,28.0946093 91.5854323,28.1887979 91.8463452,28.2776043 C91.8624842,28.2829865 91.9082112,28.3045153 91.9485586,28.3206619 C92.1449158,28.4202327 92.6640519,28.6651231 92.7824042,28.7297096 C93.2396744,28.9745999 93.6888751,29.2329458 94.1273165,29.5155116 C94.2591179,29.6016269 94.9853706,30.1452296 95.0795144,30.1963606 C95.2731818,30.3739734 95.5798218,30.651157 95.6605165,30.729199 C95.9779158,31.0306025 96.2845558,31.3508437 96.5777467,31.6791583 C96.6772702,31.7868024 96.7687243,31.8998287 96.8628681,32.0101639 C96.8897664,32.0505304 96.9085952,32.0720593 96.9435629,32.1366457 C97.1748878,32.4999446 97.4115924,32.8605524 97.6187089,33.2399979 C97.8554134,33.6732654 98.0544604,34.3864077 97.7935474,33.5117993 C97.9172794,33.9262291 98.0732892,34.3218212 98.1781924,34.7389422 C98.2239194,34.9138639 98.2535075,35.0941677 98.2938548,35.2690894 C98.2830955,35.7615612 98.3180632,36.2594153 98.2965447,36.7518871 L98.2965447,36.8353113 C98.2804057,36.8837511 98.2642668,36.9294999 98.2400583,37.0209974 C98.1243959,37.4327361 98.0114232,37.8444748 97.8876913,38.2535225 M95.5260253,18.2236441 C89.4900589,15.7666673 82.7466686,15.8850758 76.344886,16.1111284 C73.5367091,16.2133903 70.8334354,18.5169743 70.9652368,21.4933341 C70.9813758,21.8216486 71.0324824,22.1418898 71.099728,22.4567489 C71.0620705,22.6774193 71.0109638,22.8873253 70.9975147,23.1241424 C70.0022796,42.0183753 69.0043547,60.9179905 68.0091196,79.8149145 C67.6433034,86.7391221 78.4026019,86.7175932 78.768418,79.8149145 C79.1692019,72.2017846 79.5699857,64.5886547 79.9707696,56.9782159 C84.5784392,56.8086764 89.2560441,56.4238487 93.6028007,54.91414 C98.8829264,53.081499 103.606258,49.7848981 106.527408,44.9328397 C109.548081,39.916624 109.763267,34.0607843 107.380082,28.7727672 C105.139458,23.7888448 100.467233,20.236589 95.5260253,18.2236441" fill="#AD6368"></path>
                <path d="M33.1422214,60.8561969 L33.0755092,60.8561969 C32.4057186,60.5449552 31.6585419,60.3356719 30.8526585,60.247129 C24.3975853,59.5683001 17.9104903,59.3885312 11.4367378,59.702456 C11.268623,55.8843787 11.2472751,52.0716676 11.3566831,48.2670058 C13.5288326,39.2168478 14.6309182,29.9010611 14.6602716,20.5933237 C15.0845612,18.6131824 15.5462097,16.6357242 16.0532225,14.6663154 C17.7690604,7.97461836 7.47936964,5.12246361 5.7581947,11.8141606 C1.96894135,26.5739944 0.234423969,41.8355713 0.658713605,57.0649507 C0.629360234,57.2125222 0.589332909,57.3520444 0.562648027,57.4996159 C0.24776641,59.3080376 0.178385715,61.2425659 0.597338374,63.0456214 C0.199733621,63.762014 -0.0377618358,64.577682 0.00493397668,65.5033578 C0.125015949,68.1811098 2.3665461,71.1620543 5.34191053,70.8695944 C13.8303717,70.0485602 22.3695342,70.0834407 30.8526585,70.9796022 C31.6078406,71.0627789 32.3470119,70.8856931 33.0328134,70.5556695 C35.0795439,70.4107812 36.194972,68.8894531 36.3737607,67.1937223 C37.8254183,64.8406276 36.7553545,60.8883943 33.1422214,60.8561969" fill="#C3B56E"></path>
                <path d="M143.210631,32.8685877 C144.50082,32.4609336 145.80462,32.1990631 147.127472,31.9344929 C147.492209,31.9047963 147.854224,31.8670005 148.218961,31.8427032 C148.99743,31.7968084 149.773177,31.791409 150.551646,31.8076072 C153.401495,31.880499 156.126135,29.2779922 155.995483,26.4082156 C155.859387,23.4250517 153.602916,21.0844154 150.551646,21.0088239 C142.922108,20.8252446 135.545708,23.5168413 129.630979,28.0847267 C129.089317,25.6469013 127.004327,23.5384389 124.323237,23.6572255 C121.48972,23.7841112 118.735138,26.0356575 118.8794,29.0566172 C119.102597,33.7702861 119.015496,38.3489702 118.648037,42.8709607 C118.435727,43.4405965 118.217974,44.0102323 118.043771,44.5933666 C117.741638,45.5949538 117.80152,46.6748321 118.133594,47.6737196 C117.502109,52.5223733 116.535828,57.3359309 115.180313,62.2088819 C114.423619,64.9301753 116.116653,68.2049063 118.982833,68.8501336 C121.859901,69.5007603 124.867621,67.9943301 125.678753,65.0813583 C127.488829,58.577791 128.702805,51.9149417 129.347899,45.1926991 C129.46222,44.9497265 129.579262,44.7040542 129.701749,44.4610815 C130.346843,43.1976239 131.106259,42.0151571 131.922834,40.8542879 C131.955497,40.8056934 131.963663,40.7921949 131.98816,40.7543992 C131.999048,40.7409007 132.00177,40.7409007 132.012658,40.7274022 C132.222245,40.4817299 132.426389,40.2333579 132.638699,39.9903853 C133.106869,39.4558455 133.594092,38.9429033 134.097647,38.4434595 C134.606646,37.9467155 135.131976,37.4688694 135.673638,37.0072214 C135.896836,36.8209424 136.14453,36.5347746 136.414,36.4024895 C136.468439,36.3700932 136.522877,36.3349971 136.563706,36.3053005 C137.723243,35.4845929 138.945384,34.7421766 140.211077,34.0969493 C140.71191,33.8404782 141.245406,33.5462113 141.787068,33.3518332 C141.91772,33.3086381 142.04565,33.2681426 142.110976,33.2465451 C142.472991,33.11426 142.84045,32.9873743 143.210631,32.8685877"  fill="#83ACAA"></path>
                <path d="M167.457548,52.7102366 C167.457548,52.6833475 167.479227,52.6591473 167.484646,52.6322581 C167.414191,52.7102366 167.343736,52.7855261 167.27057,52.8581267 C167.186566,52.9414829 167.097142,53.0194613 167.007718,53.0974398 C166.706927,53.2076851 166.064699,53.6916891 165.869592,53.8019345 C165.858753,53.8073123 165.837074,53.8153791 165.823525,53.8234458 C165.660936,53.8799129 165.492927,53.9444468 165.463118,53.9525135 C165.086453,54.0708256 164.704368,54.1649375 164.319573,54.2429159 C164.300604,54.2482938 164.289765,54.2509827 164.268086,54.2563605 C164.251828,54.2590494 164.232859,54.2671161 164.21389,54.269805 C164.037752,54.3047609 163.837225,54.3128276 163.671925,54.3666058 C163.807417,54.3208944 163.867033,54.3101387 163.961876,54.2886274 C163.463269,54.2859385 162.975501,54.3101387 162.476893,54.2832496 C162.436246,54.2805607 162.333273,54.2805607 162.246558,54.2805607 C162.21946,54.2778718 162.211331,54.2751829 162.173393,54.269805 C162.029773,54.2456048 161.883442,54.2160268 161.742531,54.1891377 C160.720928,53.9794026 159.76978,53.6244664 158.777985,53.3179305 C158.761726,53.3125527 158.761726,53.3152416 158.748177,53.3098638 C158.577458,53.2318853 158.404029,53.1565958 158.23602,53.0759285 C157.704895,52.8231708 157.179189,52.5515908 156.664323,52.2638773 C156.217202,52.0138086 155.775501,51.7502953 155.341929,51.4706485 C155.241666,51.4007368 155.033009,51.215202 154.827063,51.0538673 C154.848741,51.1157122 154.789125,51.1264679 154.575049,50.9140439 C154.550661,50.8925326 154.531692,50.8710213 154.507304,50.84951 C154.463947,50.8306877 154.41788,50.8011096 154.388071,50.8011096 C154.426009,50.8011096 154.450397,50.8253098 154.485625,50.8306877 C154.325746,50.6827975 154.160446,50.5429742 154.005986,50.3897062 C153.867785,50.2606385 153.737714,50.123504 153.604933,49.9836806 C153.575125,49.9514137 153.580544,49.9487248 153.553446,49.9245246 C153.572415,49.9675472 153.604933,50.0132587 153.604933,50.0589701 C153.604933,50.0293921 153.569705,49.9648583 153.542607,49.91108 C153.222848,49.5534548 153.312272,49.5695883 153.447763,49.7255452 C153.293303,49.4727875 153.079227,49.185074 152.973544,49.0371839 C152.943736,48.9538277 152.916638,48.881227 152.892249,48.8166932 C152.886829,48.8462712 152.88141,48.8758492 152.870571,48.9108051 C152.862441,48.8973605 152.851602,48.8866049 152.848892,48.881227 C152.846182,48.7978708 152.848892,48.730648 152.838053,48.6446029 C152.789276,48.4967128 152.789276,48.42949 152.821794,48.4160454 C152.827213,48.3515115 152.835343,48.2547107 152.843472,48.1363987 C152.851602,48.0906872 152.862441,48.0449757 152.87599,48.0019531 C152.935606,47.7814624 153.287883,47.1038568 152.919347,47.7357509 C152.491195,48.4698236 153.119874,47.3781257 153.149682,47.3297253 C153.247236,47.157635 153.350209,46.9936114 153.458602,46.8268989 C153.49654,46.7704318 153.534477,46.7139646 153.575125,46.6601864 C153.851527,46.3670951 154.504594,45.7513344 154.5615,45.6975562 C154.56692,45.6894895 154.585889,45.6760449 154.596728,45.6706671 C154.783706,45.5496661 155.070947,45.3614423 155.133273,45.3211087 C155.618331,45.0199506 156.119648,44.7483706 156.629095,44.4956129 C156.783555,44.4230123 156.997631,44.3073891 157.200868,44.2186551 C157.241515,44.2078994 157.252354,44.2052105 157.303841,44.1836992 C158.515132,43.7319621 159.742682,43.3232476 160.978361,42.9333555 C161.76692,42.6832868 162.479603,42.2423054 163.097443,41.6937675 C163.60418,42.2476832 164.116336,42.7962211 164.609524,43.3635813 C164.931993,43.7346511 165.238203,44.1191654 165.563382,44.4902351 C165.74765,44.7510595 165.942757,45.0038171 166.124315,45.2700193 C166.400717,45.6760449 166.66628,46.0928262 166.915584,46.5176741 C166.991459,46.6494308 167.248892,47.0205005 167.42774,47.3458588 C167.43316,47.3646811 167.441289,47.3915703 167.481937,47.5125713 C167.574071,47.7814624 167.679754,48.0449757 167.763758,48.3192446 C167.929057,48.8301377 168.032031,49.3490976 168.148553,49.8734353 C168.156683,50.093926 168.159392,50.3735728 168.159392,50.4407955 C168.159392,50.5107072 168.159392,50.8575768 168.148553,51.0834453 C168.091647,51.3846034 168.021191,51.6965171 167.912799,51.9842305 C167.88841,52.0218753 167.869441,52.0460755 167.839633,52.0971648 C167.815245,52.1321207 167.752919,52.2181658 167.696013,52.2907664 C167.763758,52.2369882 167.815245,52.2100991 167.817955,52.2369882 C167.815245,52.2396771 167.815245,52.2477438 167.812535,52.2504328 C167.801696,52.2853886 167.758339,52.3472336 167.641816,52.4682346 C167.601169,52.5112571 167.555102,52.5569686 167.517164,52.6026801 C167.500905,52.6349471 167.457548,52.6887253 167.457548,52.7102366 M161.821116,54.2294714 C161.970156,54.2509827 162.083969,54.269805 162.176103,54.2805607 C162.024353,54.2805607 161.875313,54.272494 161.821116,54.2294714 M167.609298,47.8191071 C167.609298,47.8191071 167.490066,47.4883711 167.441289,47.3673701 C167.546972,47.5636606 167.633687,47.7411287 167.609298,47.8191071 M162.704519,33.4710771 C161.422772,32.4896245 159.76436,32.0325096 158.095109,32.5622251 C152.312347,34.3960625 146.049946,36.9021278 143.356382,42.766643 C141.925595,45.8830911 141.464925,49.3598532 142.76835,52.6107469 C144.060936,55.845507 146.2857,58.1687263 149.074108,60.204232 C154.10625,63.8772847 160.731767,65.8079229 166.915584,64.6785802 C173.424579,63.4900815 178.29955,58.1794819 178.930939,51.6965171 C179.630074,44.4499014 174.898722,38.5531192 170.273054,33.5544333 C168.381598,31.505483 164.655591,31.4866606 162.704519,33.4710771" fill="#C9A600"></path>
                <path d="M213.241657,51.6051708 C213.236262,51.6799591 213.230867,51.7574184 213.222774,51.8322067 C213.179612,52.4358551 213.190402,51.9337051 213.241657,51.6051708 M213.524908,37.6170885 C209.232981,36.5032771 205.008495,37.1737007 201.024098,38.9579358 C199.578169,39.6069913 198.242843,40.4563727 196.953377,41.3725293 C197.001934,40.3655583 197.055887,39.3559163 197.109839,38.3462743 C197.250116,35.5523973 194.522814,32.8787157 191.714583,33.0042532 C188.66896,33.1378037 186.470393,35.3520715 186.319326,38.3462743 C185.879612,46.850772 185.442597,55.3579406 185.005581,63.8624383 C184.859909,66.6589863 187.589909,69.3299969 190.400838,69.2044594 C193.44646,69.0735799 195.642329,66.8566411 195.796094,63.8624383 C195.933673,61.1754016 196.07395,58.483023 196.208831,55.7906443 C196.786124,55.5395693 197.333742,55.19768 197.822013,54.7275821 C199.068318,53.5309694 200.317319,52.3370277 201.63646,51.2205453 C201.733574,51.1404149 202.47812,50.4245841 202.561746,50.4646493 C202.564444,50.4646493 201.74976,51.0576136 202.256914,50.6943562 C202.418772,50.5795027 202.575234,50.4593073 202.737092,50.3444538 C203.430383,49.8476458 204.150649,49.385561 204.892497,48.9715544 C205.235096,48.7819126 205.58309,48.6002839 205.936479,48.4320102 C205.968851,48.4159842 206.090244,48.373248 206.20894,48.3224988 C206.888742,48.119502 207.555056,47.9138342 208.245649,47.7455605 C208.269928,47.7455605 208.275323,47.7482315 208.3023,47.7455605 C208.62062,47.7402185 208.93894,47.7215214 209.25726,47.7268634 C209.454187,47.7295345 209.648416,47.7455605 209.842645,47.7589156 C209.969434,47.7776126 210.101618,47.7882967 210.196035,47.8096648 C210.67891,47.9138342 211.19146,48.1462121 211.685126,48.2690786 C211.733683,48.2904467 211.78224,48.3171568 211.8281,48.3411959 C212.049305,48.4640624 212.257023,48.6029549 212.467438,48.7418475 C212.537576,48.8059517 212.610412,48.867385 212.672458,48.9341602 C212.702131,48.9581993 212.731805,48.9902514 212.758782,49.0249746 C212.872082,49.2012613 213.006963,49.380219 213.093288,49.5030855 C213.093288,49.5057565 213.095985,49.5137695 213.098683,49.5164405 C213.166124,49.7434764 213.214681,49.9731833 213.271331,50.2028902 C213.276726,50.2536394 213.279424,50.3043886 213.279424,50.3471248 C213.290214,50.6756591 213.284819,51.0041934 213.263238,51.3353987 C213.257843,51.412858 213.252448,51.4929883 213.244355,51.5677766 C213.03394,52.2034771 212.974592,52.9513601 212.812734,53.6004157 C212.626598,54.3349436 212.421578,55.0614585 212.227349,55.7933153 C211.722892,57.6817198 211.326341,59.5914924 211.175274,61.5413301 C210.989137,63.9692787 211.604197,66.1648494 212.551064,68.3657621 C213.042033,69.5089546 214.630936,70.5079125 215.77473,70.8204208 C217.066894,71.1729942 218.787981,71.0127335 219.931776,70.2835477 C222.448663,68.6755993 222.966607,66.1301262 222.079088,63.5632851 C222.127645,63.6834806 222.146528,63.6861516 222.062902,63.3228941 C222.03053,63.1653045 221.976578,63.0103859 221.944206,62.8527963 L221.944206,62.8501253 L221.944206,62.8421122 C221.946904,62.5162489 221.930718,62.1930567 221.946904,61.8698644 C221.946904,61.8431543 221.976578,61.6401575 221.995461,61.4665418 C221.952299,61.7924051 221.830906,62.2357928 221.938811,61.6454995 C221.954997,61.5466721 221.984671,61.4531867 222.003554,61.3543593 L222.003554,61.3757274 L222.003554,61.3543593 C222.297596,59.8666065 222.70224,58.4109057 223.085303,56.9471919 C224.188633,52.7430213 224.577092,48.5335086 222.615916,44.5163087 C220.908317,41.0226269 217.24224,38.5813233 213.524908,37.6170885" fill="#B5998C"></path>
                <path d="M274.494097,64.8796549 C268.752853,57.8145095 261.522942,52.120692 253.471328,47.9799768 C253.500675,47.9559184 253.530021,47.93186 253.559368,47.9078016 C253.767461,47.7420661 253.978222,47.5763306 254.188984,47.410595 C254.311705,47.3143615 254.38107,47.252879 254.415752,47.2234743 C255.170758,46.5979563 256.003131,46.0312477 256.790151,45.4591928 C260.410443,42.8181168 264.169463,40.3721811 268.040534,38.1160394 C270.457619,36.7126336 271.516761,33.224168 269.95606,30.8022906 C268.387356,28.3643744 265.239276,27.3806538 262.656784,28.8856394 C256.3046,32.5852842 250.264556,36.8302524 244.587341,41.5109447 C244.008415,28.8375226 242.29031,16.2175637 239.446367,3.82749592 C237.909678,-2.87677375 227.617058,-0.0378844392 229.156416,6.67173153 C233.646431,26.2231782 235.076406,46.2611389 233.579734,66.2696949 C233.067504,73.1316806 243.741628,73.0996028 244.25119,66.2696949 C244.517977,62.7090541 244.656706,59.1457401 244.736742,55.5850993 C245.998641,56.1384421 247.247202,56.7185165 248.471751,57.3520539 C250.931522,58.621802 253.311256,60.0626318 255.581609,61.6558315 C256.131189,62.0407656 256.667429,62.4551045 257.217009,62.8427118 C257.24102,62.8614238 257.246356,62.864097 257.262363,62.8774628 C257.537153,63.0966614 257.811943,63.3105137 258.081397,63.5323854 C259.1272,64.3851215 260.143656,65.2726085 261.133434,66.1921734 C263.217036,68.1382294 265.151237,70.2286356 266.949377,72.4393338 C268.720839,74.6179541 272.682617,74.4201408 274.494097,72.4393338 C276.615049,70.1270558 276.385612,67.1999524 274.494097,64.8796549" fill="#B886A8"></path>
                <path d="M49.9990293,71 C56.6618122,71 56.6721662,60 49.9990293,60 C43.3388349,60 43.3284809,71 49.9990293,71" fill="#599C80"></path>
            </g>
        </g>
    </g>
</svg>