<?xml version="1.0" encoding="utf-8"?>
<!-- Generator: Adobe Illustrator 24.1.2, SVG Export Plug-In . SVG Version: 6.00 Build 0)  -->
<svg version="1.1" id="Layer_1" xmlns="http://www.w3.org/2000/svg" xmlns:xlink="http://www.w3.org/1999/xlink" x="0px" y="0px"
	 viewBox="0 0 276 85" style="enable-background:new 0 0 276 85;" xml:space="preserve">
<style type="text/css">
	.st0{fill-rule:evenodd;clip-rule:evenodd;fill:#CE6E78;}
	.st1{fill-rule:evenodd;clip-rule:evenodd;fill:#E5CD67;}
	.st2{fill-rule:evenodd;clip-rule:evenodd;fill:#93CCC8;}
	.st3{fill-rule:evenodd;clip-rule:evenodd;fill:#E8BD0C;}
	.st4{fill-rule:evenodd;clip-rule:evenodd;fill:#DDA58E;}
	.st5{fill-rule:evenodd;clip-rule:evenodd;fill:#E090C9;}
	.st6{fill-rule:evenodd;clip-rule:evenodd;fill:#6ABA96;}
</style>
<desc>L.Pronk Signature</desc>
<g>
	<g transform="translate(-53.000000, -42.000000)">
		<g transform="translate(53.000000, 42.000000)">
			<path class="st0" d="M97.9,38.3C97.9,38.3,97.9,38.3,97.9,38.3c-0.1,0.2-0.2,0.4-0.2,0.5c-0.2,0.4-0.4,0.8-0.7,1.1
				c-0.1,0.1-0.2,0.3-0.3,0.4c-0.6,0.7-1.2,1.3-1.9,2c0,0,0,0-0.1,0.1c-0.1,0.1-0.3,0.3-0.4,0.3c-0.4,0.3-0.7,0.5-1.1,0.7
				c-0.4,0.2-0.8,0.4-1.2,0.6c-0.1,0.1-0.3,0.1-0.4,0.2c-0.1,0-0.2,0.1-0.3,0.1c-1.2,0.4-2.3,0.8-3.5,1c-0.6,0.1-1.2,0.3-1.8,0.4
				c-0.2,0-0.4,0.1-0.6,0.1c-0.1,0-0.2,0-0.4,0c-1.5,0.1-2.9,0.2-4.4,0.3c0.3-6.5,0.7-12.9,1-19.4c0.7,0,1.3,0,2,0
				c1,0,2,0.1,3.1,0.2c0.1,0,0.8,0.1,1,0.1c0.6,0.1,1.3,0.3,1.9,0.4c0.5,0.1,1.1,0.3,1.6,0.5c0.3,0.1,0.5,0.2,0.8,0.3
				c0,0,0.1,0,0.1,0c0.2,0.1,0.7,0.3,0.8,0.4c0.5,0.2,0.9,0.5,1.3,0.8c0.1,0.1,0.9,0.6,1,0.7c0.2,0.2,0.5,0.5,0.6,0.5
				c0.3,0.3,0.6,0.6,0.9,0.9c0.1,0.1,0.2,0.2,0.3,0.3c0,0,0,0.1,0.1,0.1c0.2,0.4,0.5,0.7,0.7,1.1c0.2,0.4,0.4,1.1,0.2,0.3
				c0.1,0.4,0.3,0.8,0.4,1.2c0,0.2,0.1,0.4,0.1,0.5c0,0.5,0,1,0,1.5v0.1c0,0,0,0.1-0.1,0.2C98.1,37.4,98,37.8,97.9,38.3 M95.5,18.2
				c-6-2.5-12.8-2.3-19.2-2.1c-2.8,0.1-5.5,2.4-5.4,5.4c0,0.3,0.1,0.6,0.1,1c0,0.2-0.1,0.4-0.1,0.7c-1,18.9-2,37.8-3,56.7
				c-0.4,6.9,10.4,6.9,10.8,0c0.4-7.6,0.8-15.2,1.2-22.8c4.6-0.2,9.3-0.6,13.6-2.1c5.3-1.8,10-5.1,12.9-10c3-5,3.2-10.9,0.9-16.2
				C105.1,23.8,100.5,20.2,95.5,18.2"/>
			<path class="st1" d="M33.1,60.9L33.1,60.9c-0.7-0.3-1.5-0.5-2.3-0.6c-6.5-0.7-12.9-0.9-19.4-0.5c-0.2-3.8-0.2-7.6-0.1-11.4
				c2.2-9.1,3.3-18.4,3.3-27.7c0.4-2,0.9-4,1.4-5.9C17.8,8,7.5,5.1,5.8,11.8C2,26.6,0.2,41.8,0.7,57.1c0,0.1-0.1,0.3-0.1,0.4
				c-0.3,1.8-0.4,3.7,0,5.5C0.2,63.8,0,64.6,0,65.5c0.1,2.7,2.4,5.7,5.3,5.4c8.5-0.8,17-0.8,25.5,0.1c0.8,0.1,1.5-0.1,2.2-0.4
				c2-0.1,3.2-1.7,3.3-3.4C37.8,64.8,36.8,60.9,33.1,60.9"/>
			<path class="st2" d="M143.2,32.9c1.3-0.4,2.6-0.7,3.9-0.9c0.4,0,0.7-0.1,1.1-0.1c0.8,0,1.6-0.1,2.3,0c2.8,0.1,5.6-2.5,5.4-5.4
				c-0.1-3-2.4-5.3-5.4-5.4c-7.6-0.2-15,2.5-20.9,7.1c-0.5-2.4-2.6-4.5-5.3-4.4c-2.8,0.1-5.6,2.4-5.4,5.4c0.2,4.7,0.1,9.3-0.2,13.8
				c-0.2,0.6-0.4,1.1-0.6,1.7c-0.3,1-0.2,2.1,0.1,3.1c-0.6,4.8-1.6,9.7-3,14.5c-0.8,2.7,0.9,6,3.8,6.6c2.9,0.7,5.9-0.9,6.7-3.8
				c1.8-6.5,3-13.2,3.7-19.9c0.1-0.2,0.2-0.5,0.4-0.7c0.6-1.3,1.4-2.4,2.2-3.6c0,0,0-0.1,0.1-0.1c0,0,0,0,0,0
				c0.2-0.2,0.4-0.5,0.6-0.7c0.5-0.5,1-1,1.5-1.5c0.5-0.5,1-1,1.6-1.4c0.2-0.2,0.5-0.5,0.7-0.6c0.1,0,0.1-0.1,0.1-0.1
				c1.2-0.8,2.4-1.6,3.6-2.2c0.5-0.3,1-0.6,1.6-0.7c0.1,0,0.3-0.1,0.3-0.1C142.5,33.1,142.8,33,143.2,32.9"/>
			<path class="st3" d="M167.5,52.7C167.5,52.7,167.5,52.7,167.5,52.7c0,0-0.1,0.1-0.2,0.1c-0.1,0.1-0.2,0.2-0.3,0.2
				c-0.3,0.1-0.9,0.6-1.1,0.7c0,0,0,0,0,0c-0.2,0.1-0.3,0.1-0.4,0.1c-0.4,0.1-0.8,0.2-1.1,0.3c0,0,0,0-0.1,0c0,0,0,0-0.1,0
				c-0.2,0-0.4,0-0.5,0.1c0.1,0,0.2-0.1,0.3-0.1c-0.5,0-1,0-1.5,0c0,0-0.1,0-0.2,0c0,0,0,0-0.1,0c-0.1,0-0.3-0.1-0.4-0.1
				c-1-0.2-2-0.6-3-0.9c0,0,0,0,0,0c-0.2-0.1-0.3-0.2-0.5-0.2c-0.5-0.3-1.1-0.5-1.6-0.8c-0.4-0.3-0.9-0.5-1.3-0.8
				c-0.1-0.1-0.3-0.3-0.5-0.4c0,0.1,0,0.1-0.3-0.1c0,0,0,0-0.1-0.1c0,0-0.1,0-0.1,0c0,0,0.1,0,0.1,0c-0.2-0.1-0.3-0.3-0.5-0.4
				c-0.1-0.1-0.3-0.3-0.4-0.4c0,0,0,0-0.1-0.1c0,0,0.1,0.1,0.1,0.1c0,0,0-0.1-0.1-0.1c-0.3-0.4-0.2-0.3-0.1-0.2
				c-0.2-0.3-0.4-0.5-0.5-0.7c0-0.1-0.1-0.2-0.1-0.2c0,0,0,0.1,0,0.1c0,0,0,0,0,0c0-0.1,0-0.2,0-0.2c0-0.1,0-0.2,0-0.2
				c0-0.1,0-0.2,0-0.3c0,0,0-0.1,0-0.1c0.1-0.2,0.4-0.9,0-0.3c-0.4,0.7,0.2-0.4,0.2-0.4c0.1-0.2,0.2-0.3,0.3-0.5
				c0-0.1,0.1-0.1,0.1-0.2c0.3-0.3,0.9-0.9,1-1c0,0,0,0,0,0c0.2-0.1,0.5-0.3,0.5-0.3c0.5-0.3,1-0.6,1.5-0.8c0.2-0.1,0.4-0.2,0.6-0.3
				c0,0,0.1,0,0.1,0c1.2-0.5,2.4-0.9,3.7-1.3c0.8-0.3,1.5-0.7,2.1-1.2c0.5,0.6,1,1.1,1.5,1.7c0.3,0.4,0.6,0.8,1,1.1
				c0.2,0.3,0.4,0.5,0.6,0.8c0.3,0.4,0.5,0.8,0.8,1.2c0.1,0.1,0.3,0.5,0.5,0.8c0,0,0,0,0.1,0.2c0.1,0.3,0.2,0.5,0.3,0.8
				c0.2,0.5,0.3,1,0.4,1.6c0,0.2,0,0.5,0,0.6c0,0.1,0,0.4,0,0.6c-0.1,0.3-0.1,0.6-0.2,0.9c0,0,0,0.1-0.1,0.1c0,0-0.1,0.1-0.1,0.2
				c0.1-0.1,0.1-0.1,0.1-0.1c0,0,0,0,0,0c0,0-0.1,0.1-0.2,0.2c0,0-0.1,0.1-0.1,0.1C167.5,52.6,167.5,52.7,167.5,52.7 M161.8,54.2
				c0.1,0,0.3,0,0.4,0.1C162,54.3,161.9,54.3,161.8,54.2 M167.6,47.8c0,0-0.1-0.3-0.2-0.5C167.5,47.6,167.6,47.7,167.6,47.8
				 M162.7,33.5c-1.3-1-2.9-1.4-4.6-0.9c-5.8,1.8-12,4.3-14.7,10.2c-1.4,3.1-1.9,6.6-0.6,9.8c1.3,3.2,3.5,5.6,6.3,7.6
				c5,3.7,11.7,5.6,17.8,4.5c6.5-1.2,11.4-6.5,12-13c0.7-7.2-4-13.1-8.7-18.1C168.4,31.5,164.7,31.5,162.7,33.5"/>
			<path class="st4" d="M213.2,51.6c0,0.1,0,0.2,0,0.2C213.2,52.4,213.2,51.9,213.2,51.6 M213.5,37.6c-4.3-1.1-8.5-0.4-12.5,1.3
				c-1.4,0.6-2.8,1.5-4.1,2.4c0-1,0.1-2,0.2-3c0.1-2.8-2.6-5.5-5.4-5.3c-3,0.1-5.2,2.3-5.4,5.3c-0.4,8.5-0.9,17-1.3,25.5
				c-0.1,2.8,2.6,5.5,5.4,5.3c3-0.1,5.2-2.3,5.4-5.3c0.1-2.7,0.3-5.4,0.4-8.1c0.6-0.3,1.1-0.6,1.6-1.1c1.2-1.2,2.5-2.4,3.8-3.5
				c0.1-0.1,0.8-0.8,0.9-0.8c0,0-0.8,0.6-0.3,0.2c0.2-0.1,0.3-0.2,0.5-0.3c0.7-0.5,1.4-1,2.2-1.4c0.3-0.2,0.7-0.4,1-0.5
				c0,0,0.2-0.1,0.3-0.1c0.7-0.2,1.3-0.4,2-0.6c0,0,0,0,0.1,0c0.3,0,0.6,0,1,0c0.2,0,0.4,0,0.6,0c0.1,0,0.3,0,0.4,0.1
				c0.5,0.1,1,0.3,1.5,0.5c0,0,0.1,0,0.1,0.1c0.2,0.1,0.4,0.3,0.6,0.4c0.1,0.1,0.1,0.1,0.2,0.2c0,0,0.1,0.1,0.1,0.1
				c0.1,0.2,0.2,0.4,0.3,0.5c0,0,0,0,0,0c0.1,0.2,0.1,0.5,0.2,0.7c0,0.1,0,0.1,0,0.1c0,0.3,0,0.7,0,1c0,0.1,0,0.2,0,0.2
				c-0.2,0.6-0.3,1.4-0.4,2c-0.2,0.7-0.4,1.5-0.6,2.2c-0.5,1.9-0.9,3.8-1.1,5.7c-0.2,2.4,0.4,4.6,1.4,6.8c0.5,1.1,2.1,2.1,3.2,2.5
				c1.3,0.4,3,0.2,4.2-0.5c2.5-1.6,3-4.2,2.1-6.7c0,0.1,0.1,0.1,0-0.2c0-0.2-0.1-0.3-0.1-0.5v0v0c0-0.3,0-0.6,0-1c0,0,0-0.2,0-0.4
				c0,0.3-0.2,0.8-0.1,0.2c0-0.1,0-0.2,0.1-0.3v0v0c0.3-1.5,0.7-2.9,1.1-4.4c1.1-4.2,1.5-8.4-0.5-12.4
				C220.9,41,217.2,38.6,213.5,37.6"/>
			<path class="st5" d="M274.5,64.9c-5.7-7.1-13-12.8-21-16.9c0,0,0.1,0,0.1-0.1c0.2-0.2,0.4-0.3,0.6-0.5c0.1-0.1,0.2-0.2,0.2-0.2
				c0.8-0.6,1.6-1.2,2.4-1.8c3.6-2.6,7.4-5.1,11.3-7.3c2.4-1.4,3.5-4.9,1.9-7.3c-1.6-2.4-4.7-3.4-7.3-1.9
				c-6.4,3.7-12.4,7.9-18.1,12.6c-0.6-12.7-2.3-25.3-5.1-37.7c-1.5-6.7-11.8-3.9-10.3,2.8c4.5,19.6,5.9,39.6,4.4,59.6
				c-0.5,6.9,10.2,6.8,10.7,0c0.3-3.6,0.4-7.1,0.5-10.7c1.3,0.6,2.5,1.1,3.7,1.8c2.5,1.3,4.8,2.7,7.1,4.3c0.5,0.4,1.1,0.8,1.6,1.2
				c0,0,0,0,0,0c0.3,0.2,0.5,0.4,0.8,0.7c1,0.9,2.1,1.7,3.1,2.7c2.1,1.9,4,4,5.8,6.2c1.8,2.2,5.7,2,7.5,0
				C276.6,70.1,276.4,67.2,274.5,64.9"/>
			<path class="st6" d="M50,71c6.7,0,6.7-11,0-11C43.3,60,43.3,71,50,71"/>
		</g>
	</g>
</g>
</svg>
